<svg xmlns="http://www.w3.org/2000/svg" viewBox="0 0 30.02 27.81"><defs><style>.cls-1{fill:#636d38;}.cls-2{fill:#515c30;}.cls-3{fill:#7e7444;}.cls-4{fill:#555c30;}.cls-5{fill:#471919;}.cls-6{fill:#fff;}.cls-7{fill:#010101;}.cls-8{fill:#262a1b;}.cls-9{fill:#535a2f;}.cls-10{fill:#869057;}.cls-11{fill:#aaa278;}</style></defs><title>monstruo</title><g id="Capa_2" data-name="Capa 2"><g id="Skin"><path class="cls-1" d="M6.75,8l1.74-1.5,1.68-1.24.5-1,.3-.66.26-.67.45-1.2.77-1,.77-.42.94.06,1.75.77,1.49,1.25.72.81,2,1.84,1.61.9,1.26.73.75,1,.13,1-.53.63-.39.46-.18.16.24.65.79,1.46s.88,1.21.9,1.22.57,1,.58,1.05l.45,1,.21.88.15.9-.12.78-.35.46-.56.38-.31.29,0,.29.33,1.5s.39.91.41.93l2.15,1.53s.86.35.86.38,1,.66,1,.66l.38.69s.07.59.06.6-.07.44-.07.44l-.25.47-.39.31-.61.27-.66.15s-.9,0-.9,0-1,0-1,0h-.57l-1.68-.06-1.08-.3-.73-.1-.52-.07-1.85-.29-1.15-.22-3-.58-2.77,0-1.24.11-1.62.17L8.24,26l-1.76.27L5,26.66l-2.2.58-.91.18-1.4-.09-.4-.47V26.3l.11-.44.28-.43.55-.73.7-.61.72-.75.2-.4.87-1.51s.53-1,.52-1.06.27-.66.27-.66.73-1.49.74-1.54.31-.6.31-.6L5,17.15l-.49-.36s-.35-1.22-.34-1.28l.11-.81.45-.86,1-1.19s.84-.72.85-.74.56-.57.56-.57L7.58,11l.66-.89s0-.47,0-.47l-.49-.25-.51-.27a5.75,5.75,0,0,1-.63-.5S6.75,8,6.75,8Z"/><path class="cls-2" d="M9,11.34c0-2.59.09.87-.62-1.64a1.86,1.86,0,0,0-.79-.54A2.28,2.28,0,0,1,8.81,6.5c.86-1,1.54-1.73,2.34-2.8,3.7-5,5.66-1,8.43,1.19.81.64,2.64,1.21,3.16,1.87,1.4,1.81-.24,2.89-1,4-.18.25.24.39.4.17,1.63-2.3,3-3,.13-5.05a60.46,60.46,0,0,1-5.44-4.35A4.81,4.81,0,0,0,14,0a2.49,2.49,0,0,0-2.07.81,5.32,5.32,0,0,0-.67,1.47A11.34,11.34,0,0,1,7.87,6.64c-.46.42-1.46.91-1.5,1.63C6.28,9.62,8.48,9.8,8.5,11.38c0,.29.46.22.46,0Z"/><path class="cls-2" d="M8,10c-.72,1.77-3,2.64-3.87,4.44s.58,3.32,2.21,3.9a.6.6,0,0,0,.42-.18,4.15,4.15,0,0,1-2.18-1.72c-.69-1.24.12-2.4.91-3.35s2.4-1.84,2.95-3.19c0-.06-.4,0-.45.11Z"/><path class="cls-2" d="M22.7,10c.51,1.84,2.07,3.14,2.74,4.92.4,1.06.72,2.31-.12,3.23s-1.67.95-2,2.1c0,.08.39.27.38.29.36-1.15,1.3-1.28,2-2.1A2.66,2.66,0,0,0,26,15.75c-.6-2.05-2.38-3.47-2.95-5.51,0-.12-.36-.22-.38-.26Z"/><path class="cls-2" d="M5.17,17.86c-.74,1.45-1.38,3.06-2.26,4.43C4.12,20.41.33,25.45.34,25.4c-.2.83-.74,1.35.17,2.09,1.49,1.2,7.51-1.39,9-1.6a29.92,29.92,0,0,1,10.24.6c2.1.41,7.31,2,9.31.25,1.32-1.17.85-.54.89-1.65.06-1.58-1.8-1.74-2.76-2.45a5,5,0,0,1-2.37-3.87s-.41.15-.39.27c.35,2.35,1.18,2.86,3,4.17a3.84,3.84,0,0,1,2.09,1.54q-2.05,2.91-5.1,2.2c-4.16.12-8.13-1.87-12.4-1.57a36.09,36.09,0,0,0-4,.55c-2.7.5-6.47,3.09-5.73-2.21.24-1.74,2.51-4.5,3.31-6.09,0,0-.33.12-.39.24Z"/></g><g id="face"><path class="cls-3" d="M11.6,22.21c0,.06-.08.1-.07.17s0,.13,0,.19a.09.09,0,0,1,0,.05c0,.06-.13,0-.19,0s-.08.18-.16.23a.47.47,0,0,1,0-.16c0-.05-.06-.11-.11-.09s0,.08,0,.12l0,.48a.39.39,0,0,1,0,.15.13.13,0,0,1-.11.09.14.14,0,0,1-.13-.12.65.65,0,0,1,0-.19.73.73,0,0,0,0-.23.12.12,0,0,0,0-.06s-.12,0-.16,0-.1.09-.16.06-.06-.1-.05-.16a.8.8,0,0,1,.09-.25s.2-.31,0-.33.36-.07.36-.07l.53-.07.43,0S11.56,22.09,11.6,22.21Z"/><path class="cls-3" d="M10.18,18.38c0,.09-.07.16-.09.25a.16.16,0,0,1,0,.07,0,0,0,0,1-.06,0s0-.05,0-.08a.06.06,0,0,0-.08,0,.18.18,0,0,0-.06.07l-.11.16a.18.18,0,0,1-.05.06.13.13,0,0,1-.17-.08.37.37,0,0,1,0-.21l0-.33.3-.12.24-.07.27-.1S10.17,18,10.18,18.38Z"/><path class="cls-3" d="M15.71,17.23l-.1.24s-.09,0-.11-.05a.31.31,0,0,0-.08-.11.12.12,0,0,0-.16,0,.17.17,0,0,0,0,.17s.09.09.09.15a.28.28,0,0,1,0,.09.74.74,0,0,0,0,.3.58.58,0,0,1-.13.38.16.16,0,0,1-.13.07c-.07,0-.1-.08-.11-.15a6.42,6.42,0,0,1,0-.83c0-.08,0-.19-.13-.19s-.13.09-.14.17a.5.5,0,0,1,0,.23.21.21,0,0,1-.32,0,.44.44,0,0,1-.08-.35,3.13,3.13,0,0,0,0-.37s0-.1-.05-.11a.14.14,0,0,0-.11-.15l.57.11.76.15.38.1S15.77,17.08,15.71,17.23Z"/><path class="cls-3" d="M14.49,14.49c0,.15.07.29.08.44s0,.09,0,.14l0,.1a1.46,1.46,0,0,0,.22.44.33.33,0,0,1,.06.1.28.28,0,0,1,0,.08.41.41,0,0,1,0,.15.34.34,0,0,1-.07.11.45.45,0,0,1-.37.17.36.36,0,0,1-.26-.22.7.7,0,0,1,0-.35.76.76,0,0,1,0-.18c0-.06.06-.11.08-.17a1.27,1.27,0,0,0,0-.7s.05-.29-.14-.27.32-.15.32-.15S14.46,14.25,14.49,14.49Z"/><path class="cls-3" d="M10.05,15.3c0,.12,0,.23,0,.33a1.68,1.68,0,0,1-.26.24A1.09,1.09,0,0,0,9.49,17a.66.66,0,0,0,.41.43.49.49,0,0,0,.57-.27.27.27,0,0,0,0-.26c-.12-.15-.4,0-.53-.19a.3.3,0,0,1,0-.37,2.58,2.58,0,0,0,.26-.3.74.74,0,0,0,.08-.29,2.46,2.46,0,0,0,0-.46s-.08-.27.08-.29S10,15,10,15A.46.46,0,0,1,10.05,15.3Z"/><path class="cls-3" d="M11.29,18.24a5.3,5.3,0,0,1-.08,1.2c0,.11,0,.22-.08.33a1.64,1.64,0,0,0-.1.44.28.28,0,0,0,0,.16c.09.14.35.11.4.27a.28.28,0,0,1,0,.21.65.65,0,0,1-.25.28.33.33,0,0,1-.35,0,.43.43,0,0,1-.12-.17,1.22,1.22,0,0,1,0-.87c0-.1.09-.2.13-.3A2.82,2.82,0,0,0,11,18.49c0-.11,0-.21,0-.32l-.07-.24.59,0S11.28,17.93,11.29,18.24Z"/><path class="cls-3" d="M13.23,22.46c0,.11,0,.22,0,.34l.13.63a1.54,1.54,0,0,0,.07.25l.07.15.13.24a1,1,0,0,1,.1.22.78.78,0,0,1,0,.34.53.53,0,0,1-.08.21.6.6,0,0,1-.48.18.41.41,0,0,1-.31-.07.16.16,0,0,1-.05-.1c0-.1.1-.17.18-.24a.82.82,0,0,0,.32-.61,1.81,1.81,0,0,0-.23-.79,1.24,1.24,0,0,1-.15-.8s0-.1.09-.11.24-.1.05-.27.45.17.45.17l.18.09S13.18,22.23,13.23,22.46Z"/><path class="cls-3" d="M15.36,23c-.13.35.11.72.15,1.09a.44.44,0,0,0,0,.13c.08.19.36.21.47.38a.34.34,0,0,1,0,.28.65.65,0,0,1-.17.24.82.82,0,0,1-.61.26.35.35,0,0,1-.2-.07A.2.2,0,0,1,15,25.1c0-.09.1-.14.17-.21a.76.76,0,0,0,.18-.62,5.31,5.31,0,0,0-.15-.65,1.05,1.05,0,0,1,0-.66s.14-.25-.09-.29.27-.07.27-.07S15.46,22.69,15.36,23Z"/><path class="cls-3" d="M8.25,20.24c.05.07.14.1.18.18a.86.86,0,0,1,0,.35,2.09,2.09,0,0,0,.2.91.78.78,0,0,1,.12.38.41.41,0,0,1-.43.34.29.29,0,0,1-.22-.09.39.39,0,0,1-.06-.24,4.08,4.08,0,0,1,.08-.91,1.65,1.65,0,0,0,.05-.35.44.44,0,0,0-.13-.32s-.23-.32-.32-.21.35-.37.35-.37S8.05,20,8.25,20.24Z"/><path class="cls-3" d="M6.55,23c-.28-.17-.43.49-.65.73a1,1,0,0,0-.12.15c0,.07-.06.14-.1.21a.6.6,0,0,1-.57.3.14.14,0,0,1-.09,0,.14.14,0,0,1,0-.13,1.43,1.43,0,0,1,.58-.83,2,2,0,0,0,.67-.77s0-.68.18-.52.06.16,0,.18a.43.43,0,0,0,0,.26l.16.22S6.59,23,6.55,23Z"/><path class="cls-3" d="M19,21a.62.62,0,0,0,.14.48,2.26,2.26,0,0,0,.75.54l.07.05a.23.23,0,0,1,0,.1.31.31,0,0,1-.06.28.23.23,0,0,1-.27.06c-.09,0-.13-.16-.22-.22a2.94,2.94,0,0,0-.28-.12.6.6,0,0,1-.18-.21,1.49,1.49,0,0,1-.32-.9s-.05-.32-.19-.32.47-.16.45-.18S19.11,20.62,19,21Z"/><path class="cls-3" d="M21.43,22.89a2.1,2.1,0,0,0,0,.35.67.67,0,0,1-.14.4,1,1,0,0,1-.26.15.35.35,0,0,0-.2.21.4.4,0,0,0,.16.33.18.18,0,0,1,.05.07.16.16,0,0,1-.06.15.47.47,0,0,1-.27.14.3.3,0,0,1-.27-.11.49.49,0,0,1,0-.39,1.27,1.27,0,0,1,.27-.65c.11-.11.25-.19.36-.3a.41.41,0,0,0,.15-.42s-.05-.23-.11-.24a3.88,3.88,0,0,1,.4,0l.27,0S21.52,22.58,21.43,22.89Z"/><path class="cls-3" d="M19.45,18.86a1.85,1.85,0,0,0,.25.19.49.49,0,0,1,.13.13.57.57,0,0,1,.05.15,1.69,1.69,0,0,0,.6.9.41.41,0,0,1,.12.12.26.26,0,0,1,0,.26.44.44,0,0,1-.63.07.69.69,0,0,1-.17-.33,1.88,1.88,0,0,1-.06-.51,1,1,0,0,0,0-.41c-.07-.15-.23-.25-.3-.4s-.08-.28-.22-.26.3-.19.3-.19S19.29,18.69,19.45,18.86Z"/><path class="cls-3" d="M18,19.35a.37.37,0,0,1,0,.15.14.14,0,0,1-.12.08c-.07,0-.13-.08-.2-.06a.11.11,0,0,0-.06.12.31.31,0,0,0,.07.13l.08.1s0,0,0,.06h0a.34.34,0,0,1-.38,0c-.11-.08-.19-.2-.3-.28a.19.19,0,0,0-.09,0,.57.57,0,0,0-.14,0,.48.48,0,0,1-.2,0,.21.21,0,0,0-.2,0s0,.05-.07.07h-.07a.26.26,0,0,0-.19.05.13.13,0,0,0,0,.18s.12,0,.15.09a.1.1,0,0,1-.06.14.23.23,0,0,1-.17,0,.3.3,0,0,1-.17-.12.68.68,0,0,1,0-.22.43.43,0,0,0-.08-.19.08.08,0,0,0-.06,0l-.06,0c-.06,0-.11-.08-.17-.07s-.08.07-.08.12,0,.12-.05.15a.1.1,0,0,1-.12,0,.23.23,0,0,1-.06-.11.63.63,0,0,0-.06-.18.13.13,0,0,0-.16-.06s-.05,0-.08.07-.13,0-.18.08,0,.13,0,.2,0,.16-.11.15-.08-.08-.08-.13a.54.54,0,0,1,.13-.37.82.82,0,0,0,.16-.2s.14-.2,0-.19.45.13.45.13l.27.06s.79,0,.83,0a3.25,3.25,0,0,0,.47,0H17l1-.14.3,0A.36.36,0,0,0,18,19.35Z"/><path class="cls-3" d="M16.68,20.78c0,.06,0,.13,0,.19a.1.1,0,0,1,0,0,.07.07,0,0,1-.08,0l-.08,0a.26.26,0,0,0-.19,0s0,0,0,0,0,0,0,0a.58.58,0,0,1,.17.4.39.39,0,0,1-.24.35.18.18,0,0,1-.23-.07.23.23,0,0,1,0-.09.66.66,0,0,1,0-.18,1.05,1.05,0,0,0,0-.16.12.12,0,0,0-.08-.13c-.07,0-.11.06-.16.11l0,0a.07.07,0,0,1-.06,0,.29.29,0,0,1,0-.2,1.1,1.1,0,0,1,.13-.38s.13-.26,0-.3l.49.12.4.09.37.1S16.69,20.62,16.68,20.78Z"/><path class="cls-3" d="M18.18,15.22c0,.11,0,.22,0,.32s-.12.19-.16.29a.71.71,0,0,0,.21.82,1.86,1.86,0,0,1,.23.17.54.54,0,0,1,.13.37,1.59,1.59,0,0,1-.07.4,1,1,0,0,1-.26.52s-.09.06-.13,0a.11.11,0,0,1,0-.09,1.76,1.76,0,0,1,.15-.52,1,1,0,0,0,0-.43.23.23,0,0,0,0-.1A.23.23,0,0,0,18,17a.49.49,0,0,1-.24,0,.37.37,0,0,1-.17-.27,5.76,5.76,0,0,1-.19-1.09.68.68,0,0,0,0-.25.58.58,0,0,0-.33-.25s-.09-.28-.24-.26.43,0,.43,0l.55.1.38.11.26.08S18.22,15.08,18.18,15.22Z"/><path class="cls-3" d="M21.59,15.23c0,.1.09.19.05.28s-.28,0-.34.16a.28.28,0,0,0,0,.12.24.24,0,0,1-.1.19.15.15,0,0,1-.19,0s0-.08-.05-.11-.14-.05-.22,0l0,0a.06.06,0,0,0,0,0,1.37,1.37,0,0,0,.09.44,1.09,1.09,0,0,1,.07.16.48.48,0,0,1-.17.45.24.24,0,0,1-.14.08c-.1,0-.17-.1-.18-.2a2.21,2.21,0,0,1,0-.3.24.24,0,0,0-.13-.25c-.13,0-.31.1-.4,0a.2.2,0,0,1,0-.11,1,1,0,0,1,.05-.46s.23-.29.08-.29l.49,0,.47,0,.38-.1.27-.11.24-.13S21.6,15.09,21.59,15.23Z"/><path class="cls-3" d="M13.58,18.84a1.05,1.05,0,0,0,0,.27c0,.07,0,.16-.11.15l-.07,0c-.09,0-.17.09-.25,0s0-.12-.05-.18A.16.16,0,0,0,12.9,19l0,0a.09.09,0,0,0,0,0,2.51,2.51,0,0,0,.05.57.46.46,0,0,1-.22.48h0c-.06,0-.07-.09-.06-.16a1.15,1.15,0,0,0,0-.67.07.07,0,0,0,0,0s0,0-.06,0l-.19.16-.05,0c-.06,0-.09-.06-.1-.12a.6.6,0,0,1,0-.3,1.82,1.82,0,0,0,.17-.34c0-.13-.06-.29-.19-.27s-.58-.23-.22-.42l.39.1.66.25.37.22.36.13S13.68,18.59,13.58,18.84Z"/><path class="cls-3" d="M11.08,15.38a2,2,0,0,0,0,.57.5.5,0,0,0,0,.21.19.19,0,0,0,.17.12c.13,0,.19-.17.19-.3s0-.29.1-.37l0,0s0,.06,0,.1l0,.34a.14.14,0,0,0,0,.06.1.1,0,0,0,.13,0,.24.24,0,0,0,.1-.11,1,1,0,0,0,.12-.5c0-.09,0-.2.07-.25a.12.12,0,0,1,.18.1s0,.08,0,.1.09-.05.14-.06.09.14.17.18.13,0,.16-.1.05-.14.12-.17l.11,0c.07,0,.08-.11.12-.17a.51.51,0,0,1,.25-.13.26.26,0,0,0,.18-.19s.06-.2-.06-.25a6.24,6.24,0,0,0-1.2.36l-.77,0-.47.1A.27.27,0,0,1,11.08,15.38Z"/><path class="cls-3" d="M8.23,14.37a3.1,3.1,0,0,0-.2.25s0,.08,0,.11a.1.1,0,0,0,.06,0,.58.58,0,0,0,.19,0s0,0,.06,0a.06.06,0,0,1,0,.05l-.07.43a.41.41,0,0,0,0,.17.14.14,0,0,0,.11.11.16.16,0,0,0,.13-.07.35.35,0,0,0,.08-.18s0-.09,0-.13a.13.13,0,0,1,.08-.1,1.92,1.92,0,0,1,0,.26s.07-.06.08-.11l.07-.27s-.05-.25.1-.16l-.4-.25-.17-.27,0-.12Z"/><path class="cls-3" d="M18.86,23.2a.57.57,0,0,0,0,.16c0,.05,0,.11-.09.11s-.08,0-.12-.07-.09-.05-.12,0a.08.08,0,0,0,0,.06.77.77,0,0,0,.07.25.85.85,0,0,1,0,.24v.37a.8.8,0,0,1-.15.59l0,0c-.05,0-.09-.06-.1-.11a6,6,0,0,1-.09-.87.08.08,0,0,0,0,0s-.08,0-.11,0a1,1,0,0,0-.14.19c0,.06-.08.12-.14.11s-.07-.08-.08-.13a1.12,1.12,0,0,1,.38-.93s.19-.19.11-.34.17.06.18.09a2,2,0,0,0,.43.19S19,22.91,18.86,23.2Z"/><path class="cls-3" d="M23,23.21c0,.07-.11.11-.07.17a.7.7,0,0,0,.07.08.35.35,0,0,1,.05.11.74.74,0,0,1,.05.26.25.25,0,0,1-.13.22h0l0,0a.32.32,0,0,1-.05-.21s0-.1,0-.12h-.06a.6.6,0,0,1-.19,0h0a.07.07,0,0,1,0-.06,1.09,1.09,0,0,1,.17-.51s.24-.34.11-.43S23,23,23,23l.22.12S23,23,23,23.21Z"/><path class="cls-3" d="M16,12.49A2.47,2.47,0,0,1,16,13a.39.39,0,0,0,0,.28.35.35,0,0,0,.07.08l.14.13a.26.26,0,0,1,.06.07.23.23,0,0,1,0,.1.64.64,0,0,1,0,.27.31.31,0,0,1-.19.19l-.12,0a.35.35,0,0,1-.32-.14.6.6,0,0,1-.13-.21.61.61,0,0,1,0-.17,1.37,1.37,0,0,1,.18-.7.74.74,0,0,0,.14-.32c0-.07,0-.14,0-.21s.15-.29,0-.29.37.1.37.1A.39.39,0,0,0,16,12.49Z"/><path class="cls-3" d="M15.3,12.44a.5.5,0,0,1-.12.21.08.08,0,0,1-.14,0,.51.51,0,0,1-.08-.12,1,1,0,0,0-.13.27.16.16,0,0,1-.05.09c-.05,0-.12,0-.15-.08a1.3,1.3,0,0,0-.06-.18s-.09-.46-.19-.37.85-.1.85-.1l.27.08A.33.33,0,0,0,15.3,12.44Z"/><path class="cls-3" d="M12.29,9.88a.12.12,0,0,0,0,0c0,.1-.14-.24-.16-.14,0-.08-.05.33-.14.34a.24.24,0,0,0-.2.16.1.1,0,0,0,0,.06s0,0,.06.06a.46.46,0,0,1,.19.37.26.26,0,0,1-.18.26.24.24,0,0,1-.21-.09.68.68,0,0,1-.11-.21s0,0,0-.06a.07.07,0,0,0-.06,0,.49.49,0,0,0-.14.26c0,.09-.09.2-.19.21a.23.23,0,0,1-.2-.1.85.85,0,0,1-.12-.58v-.44a.36.36,0,0,0-.05-.38c-.15-.16.53.13.53.13l.35,0,.29-.12.36-.05S12.43,9.62,12.29,9.88Z"/><path class="cls-3" d="M19.7,8.93a.7.7,0,0,0,0,.2.49.49,0,0,1,0,.41,1.09,1.09,0,0,0-.1.17.16.16,0,0,0,0,.18.3.3,0,0,0,.1,0,.24.24,0,0,1,.2.21.25.25,0,0,1-.05.14.46.46,0,0,1-.46.17l-.11,0a.4.4,0,0,1-.22-.21.36.36,0,0,1,0-.2,5.54,5.54,0,0,1,.33-.7.92.92,0,0,0,.05-.37,2.13,2.13,0,0,1-.07-.26,1.31,1.31,0,0,0,.26,0A1.54,1.54,0,0,0,19.7,8.93Z"/><path class="cls-3" d="M21,8.13s0,.07-.06.1a.19.19,0,0,0,0,.24.84.84,0,0,1,.08.08.12.12,0,0,1,0,.15.12.12,0,0,1-.15,0s-.06-.08-.09-.06l0,0a.39.39,0,0,0,0,.21c0,.06,0,.12,0,.16a.13.13,0,0,1-.16,0,.29.29,0,0,1-.07-.36.43.43,0,0,0,0-.26c-.06-.09.27-.53.27-.53l.16-.18S21.22,8,21,8.13Z"/><path class="cls-4" d="M9.53,10.32s-.61,1.66-.71.73-.26-1.21-.7-1.43S6.5,8.76,6.77,8.24A4.55,4.55,0,0,1,8.26,6.81c.23-.06,1.66-1.38,1.32.31-.08.4-.71.42-1,.71A.57.57,0,0,0,8.43,8a.44.44,0,0,0,.07.4,2.14,2.14,0,0,0,.29.31,4.33,4.33,0,0,1,.68,1c.11.19.21.43.08.6"/><circle class="cls-5" cx="11.16" cy="7.06" r="0.9"/><circle class="cls-6" cx="11.21" cy="7.14" r="0.48"/><ellipse class="cls-7" cx="11.23" cy="7.13" rx="0.14" ry="0.23"/><ellipse class="cls-5" cx="11.67" cy="5.73" rx="0.65" ry="0.53"/><ellipse class="cls-6" cx="11.67" cy="5.73" rx="0.3" ry="0.21"/><circle class="cls-7" cx="11.67" cy="5.75" r="0.12"/><circle class="cls-5" cx="17.84" cy="6.1" r="0.9"/><ellipse class="cls-5" cx="17.01" cy="4.6" rx="0.65" ry="0.53"/><path class="cls-8" d="M15.43,6.37a16.21,16.21,0,0,0,1.71-.89,7,7,0,0,1,1.09-.36,1.26,1.26,0,0,1,.75,0l.42.08a1.07,1.07,0,0,1,.46.16,2.16,2.16,0,0,0-.92-.65,2.35,2.35,0,0,0-.47-.18,1.43,1.43,0,0,0-.61,0,1.49,1.49,0,0,0-.42.16A2.52,2.52,0,0,0,17,5l-.38.33-.71.6a2.82,2.82,0,0,1-.69.45Z"/><path class="cls-8" d="M15.85,6.57a2,2,0,0,0,1.21.52,2.29,2.29,0,0,0,1.29-.3A4.49,4.49,0,0,0,19,6.34a2,2,0,0,0,.69-.83.61.61,0,0,1,0,.41q-.1.35-.24.69a1.2,1.2,0,0,1-.2.36,1.17,1.17,0,0,1-.34.24,2.29,2.29,0,0,1-.53.22,2.69,2.69,0,0,1-.81,0,2.18,2.18,0,0,1-.59-.09,2.29,2.29,0,0,1-.37-.18,3.22,3.22,0,0,1-.75-.53Z"/><path class="cls-8" d="M13.3,6.69s0-.07,0-.07a3.41,3.41,0,0,1-1.34-.45A2.29,2.29,0,0,0,11.53,6a1.38,1.38,0,0,0-.45-.06,1.81,1.81,0,0,0-.42,0A1.87,1.87,0,0,0,9.49,7a2.14,2.14,0,0,1-.3.53,7.15,7.15,0,0,1,.93-.72,2.4,2.4,0,0,1,1.11-.38c.69,0,1.36.32,2,.27Z"/><path class="cls-8" d="M13,7.18a1.2,1.2,0,0,1-.46.54,2.93,2.93,0,0,1-.65.31l-.32.1a2,2,0,0,1-1.06,0,1.24,1.24,0,0,1-.46-.26.72.72,0,0,1-.24-.46,2.83,2.83,0,0,0,1.66.31A2,2,0,0,0,13,7.06Z"/><path class="cls-8" d="M15.22,6a.47.47,0,0,0,.3-.17,2.83,2.83,0,0,0,.2-.29c.15-.22.34-.41.49-.63l.2-.33A1.75,1.75,0,0,1,18,3.82a2.47,2.47,0,0,0-.72-.18.77.77,0,0,0-.55.12,2.39,2.39,0,0,0-.92,1,7.44,7.44,0,0,1-.54,1.14Z"/><path class="cls-8" d="M13.4,6.4a.81.81,0,0,1-.62-.18,2.74,2.74,0,0,1-.46-.48,2.82,2.82,0,0,0-.69-.65,1.12,1.12,0,0,0-.91-.15,1,1,0,0,1,.89-.21,1.68,1.68,0,0,1,.88.73,4,4,0,0,0,.76.88s.14,0,.15,0Z"/><ellipse class="cls-6" cx="17.82" cy="6.09" rx="0.41" ry="0.57"/><ellipse class="cls-6" cx="17.01" cy="4.59" rx="0.3" ry="0.21"/><circle class="cls-7" cx="17.01" cy="4.62" r="0.12"/><ellipse class="cls-7" cx="17.82" cy="6.1" rx="0.27" ry="0.29"/><path class="cls-4" d="M19.8,25c1.16,0,2.29-.52,3.4-.16s2.34,1.28,3.62,1.22a.69.69,0,0,0,.61-.29.54.54,0,0,0,0-.3,1.24,1.24,0,0,0-.58-.85c-.29-.2-.62-.33-.93-.51a7.06,7.06,0,0,1-1.1-.84,4.25,4.25,0,0,1-1.49-2s.85-2.77,1.15-1.71.67,2.26,1.21,2.59a9.11,9.11,0,0,0,2,1.14c1,.42,2.87,1.8,2.18,2.62-.56.67-.55,1.14-2.78,1.25a32.7,32.7,0,0,1-5.79-.56L18.76,26S18.3,25,19.8,25Z"/><path class="cls-4" d="M21.61,19.28A3.9,3.9,0,0,1,23,17.19a3.37,3.37,0,0,0,.68-.58,1.85,1.85,0,0,0-.16-2.07c-.4-.62-1-1.11-1.33-1.76a3,3,0,0,1-.34-1.18s.73-1.88,1-1.4.45,1.06.68,1.43a20.52,20.52,0,0,1,2,3.4c.3,1,.69,1.59.18,2.73a3.29,3.29,0,0,1-.92.85,3.44,3.44,0,0,0-1.23,1,3.75,3.75,0,0,1-.24.52s-1.88,1.1-1.71-.77Z"/><path class="cls-4" d="M20.81,10.4c-.43-.44.11-1.26.52-1.71.19-.21.42-.38.6-.59a.91.91,0,0,0,.24-.77,1.08,1.08,0,0,0-.57-.61,4.11,4.11,0,0,0-1-.4s-1-1.24-.15-.92a4.44,4.44,0,0,1,1.32.79s1.35.59,1.65,1.32.42.92-.15,1.52c-.33.34-.39.35-.39.35a5,5,0,0,0-1,1C21.59,10.93,21.63,11.24,20.81,10.4Z"/><path class="cls-4" d="M12.24,4.07c.39-.15.56-.24.7-.58A2.18,2.18,0,0,0,13,3.14,1.52,1.52,0,0,1,14.28,2a2,2,0,0,1,1.63.59c.15.15.26.37.45.45,2.41,1,2.12.47,2.12.47l-2-1.89A4.47,4.47,0,0,0,14,.27a2,2,0,0,0-1.8.72,8.24,8.24,0,0,0-.75,1.81,8,8,0,0,1-.7,1.56c-.38.77,1.32-.19,1.32-.19Z"/><path class="cls-9" d="M8.34,17.85a1.2,1.2,0,0,1-1.62.32,5,5,0,0,1-2.31-2,2.65,2.65,0,0,1,.45-2.51,13,13,0,0,1,1.87-1.95c.31-.18,1.37-1.41,1.37-.09,0,.61-.73,1-1.18,1.37a5,5,0,0,0-1.17,1.38,1.71,1.71,0,0,0,0,1.73,2.39,2.39,0,0,0,1.68.76,1.14,1.14,0,0,1,.86.38.55.55,0,0,1,0,.53"/><path class="cls-4" d="M6.26,19.12s-.79-1.58-1.35-.49-1.35,2.81-1.35,2.81l-.74,1.43-.74.92L1,24.83a2,2,0,0,0-.67,1.42,1.13,1.13,0,0,0,1.33,1.17c.56-.09,3-.7,3-.7l2.27-.53,3.37-.6L12,25.4s1.41-1.07,0-1.42a9.29,9.29,0,0,0-4.1-.24A14.47,14.47,0,0,0,4,25.23a2.59,2.59,0,0,1-1.34.43.32.32,0,0,1-.21-.07c-.1-.1-.06-.26,0-.38A4,4,0,0,1,3.56,24a8.48,8.48,0,0,0,2.75-4.93"/><path class="cls-10" d="M6.42,12.69s-2,2.1-1.49,3.61S2.31,15,6.42,12.69Z"/><path class="cls-10" d="M1.76,24.64s-3.48,3.09.73,2.37S-.85,27.62,1.76,24.64Z"/><path class="cls-10" d="M27.76,24.17s4.15,2.27-.94,2.4S31.68,26.7,27.76,24.17Z"/><path class="cls-10" d="M4.53,20.42s.44-3,1.3-1.38C6.6,20.49,4.94,17.13,4.53,20.42Z"/><path class="cls-10" d="M25,14.8a2.46,2.46,0,0,1-.71,3.65c-2.3,1.44,2.14-1.75.57-3.65"/><path class="cls-10" d="M22.89,7.39c0-.06,1.42,1.07-.53,2S24,8.87,22.89,7.39Z"/><path class="cls-10" d="M11.85,2.73S12.29-.6,14.74.81C17.39,2.33,12.4-.85,11.85,2.73Z"/><path class="cls-10" d="M7.93,7.55S5.72,8.36,7.72,9,5.8,8.67,7.93,7.55Z"/><path class="cls-10" d="M5.89,25.08a5.56,5.56,0,0,1,5.06-.71C14.09,25.3,8.93,23.47,5.89,25.08Z"/><path class="cls-10" d="M20.41,25.53a4.62,4.62,0,0,1,2.39-.14c1.31.32-1.46-.28-2.38.17"/><ellipse class="cls-8" cx="14.65" cy="7.43" rx="0.69" ry="0.12"/><ellipse class="cls-8" cx="14.14" cy="7.83" rx="0.69" ry="0.12"/><ellipse class="cls-8" cx="14.89" cy="8.24" rx="0.69" ry="0.12"/><path class="cls-4" d="M8.14,19.06C7.8,20,5,22.21,7,23.12c1.19.52,3-.66,4.16-.88s1.94.19,3.11.5a3,3,0,0,0,1.36.09c.16,0-.1-.43-.25-.39-.87.23-1.77-.44-2.61-.63a5.43,5.43,0,0,0-2.47.18c-.51.13-1,.31-1.5.46-.92.29-1.05.7-1.29-.54s0-.92.55-1.71a3,3,0,0,0,.38-.81c0-.14-.29-.46-.34-.32Z"/><path class="cls-4" d="M9.46,18.56c2.33-1,4.9.86,7.33.82a4.75,4.75,0,0,0,3.9-1.76c.06-.07-.32-.34-.41-.24-2.17,2.38-4.74,1.68-7.59.79a4.65,4.65,0,0,0-3.61.12c-.09,0,.25.32.38.27Z"/><path class="cls-4" d="M22,13.82c-.37,2.94-4.52.13-6.36,1.32,0,0,.34.16.45.08,1-.64,2,0,3,.18a5.67,5.67,0,0,0,1.74,0,1.78,1.78,0,0,0,1.67-1.53c0-.11-.46-.16-.47,0Z"/><path class="cls-4" d="M8.22,13.29c-.41,1,.52,1.58,1.41,1.79,2.07.48,3.87-.79,5.88-.79.24,0-.16-.24-.27-.24a5.63,5.63,0,0,0-1.55.24c-.57.16-1.13.35-1.71.47-.8.17-4.09.64-3.33-1.29,0-.11-.4-.29-.44-.18Z"/><path class="cls-4" d="M20.35,7.36c.54.16-.1.78-.27.9a1.45,1.45,0,0,1-.78.27c-.44,0-.82,0-1.14.32-.11.12.27.41.39.28.35-.38.89-.18,1.34-.29a1.65,1.65,0,0,0,.87-.56c.43-.53.12-1.05-.48-1.22-.3-.09-.11.27.07.32Z"/><path class="cls-4" d="M10.47,8.65c-.41.41-.09,1,.35,1.24.82.45,1.54-.23,2.35-.39.28-.06.3-.49,0-.43A4.79,4.79,0,0,0,12,9.42a1,1,0,0,1-.87.13c-.2-.08-.59-.4-.36-.64s-.15-.47-.34-.27Z"/><path class="cls-4" d="M14.24,12.6a2.68,2.68,0,0,1,1.66-.29,3.42,3.42,0,0,0,1.42.09s-.23-.35-.36-.31a6.8,6.8,0,0,1-1.8-.13,2.72,2.72,0,0,0-1.28.33s.26.36.36.31Z"/><path class="cls-4" d="M23.71,23.26a2.83,2.83,0,0,0-2.1-.8c-1.19.05-2.41.85-3.53,0-.1-.07-.49.11-.44.14a2.29,2.29,0,0,0,1.88.44c1.37-.22,2.59-.72,3.75.34.08.08.49-.09.44-.14Z"/><path class="cls-4" d="M14.66,20.59a8.81,8.81,0,0,1,2.87.34,1.83,1.83,0,0,0,1.73-.34s-.3-.38-.33-.34c-.68.62-1.49.38-2.3.19a6.28,6.28,0,0,0-2.29-.19c.05,0,.21.36.33.34Z"/><path class="cls-4" d="M13.48,17c1.32-.26,2.6.71,3.85.11.06,0-.29-.26-.41-.21-.82.39-1.57,0-2.38-.13a3.82,3.82,0,0,0-1.41,0c-.13,0,.25.24.35.22Z"/><path class="cls-3" d="M15.07,7.52l0,.15v0a.21.21,0,0,1,0,.06.32.32,0,0,1,0,.11.28.28,0,0,0,0,.06.1.1,0,0,0,0,.07s.07,0,.09.08a.06.06,0,0,1,0,0,.09.09,0,0,1-.07.07H15l0,0a.27.27,0,0,1,0-.17A.34.34,0,0,1,15,7.81a.2.2,0,0,0,0-.07.16.16,0,0,0,0,0s0,0,0-.08l0-.09v0a.06.06,0,0,1,.05,0Z"/><path class="cls-3" d="M13.91,8v0a.21.21,0,0,1,0,.06.32.32,0,0,1,0,.11.28.28,0,0,0,0,.06.1.1,0,0,0,0,.07s.07,0,.09.08a.06.06,0,0,1,0,0,.09.09,0,0,1-.07.07h-.1l0,0a.27.27,0,0,1,0-.17.34.34,0,0,1,.06-.17.2.2,0,0,0,0-.07.15.15,0,0,0,0,0,.15.15,0,0,0,0-.08v-.1h.05Z"/><path class="cls-3" d="M14.71,8.48l0,.07a.33.33,0,0,1,0,.1.52.52,0,0,1-.05.17.46.46,0,0,0,0,.11.16.16,0,0,0,0,.11c0,.05.12.06.14.12a.1.1,0,0,1,0,0,.14.14,0,0,1-.11.12.24.24,0,0,1-.12,0l0,0,0,0A.44.44,0,0,1,14.46,9a.55.55,0,0,1,.1-.28.32.32,0,0,0,.06-.11.25.25,0,0,0,0-.07.24.24,0,0,0,0-.12V8.24h.08Z"/><ellipse class="cls-8" cx="15.04" cy="7.49" rx="0.05" ry="0.02"/><ellipse class="cls-8" cx="13.86" cy="7.87" rx="0.06" ry="0.02"/><ellipse class="cls-8" cx="14.64" cy="8.25" rx="0.06" ry="0.03"/><path class="cls-11" d="M14.53,9.06s0,.26.19.21S14.54,9.32,14.53,9.06Z"/><path class="cls-11" d="M10.87,10.45s.06,1.08.34.27S11,11.41,10.87,10.45Z"/><path class="cls-11" d="M11.81,10.52s.28.74-.21.24S12,11.21,11.81,10.52Z"/><path class="cls-11" d="M10.91,10.06s.29.3.57.13S11.28,10.33,10.91,10.06Z"/><path class="cls-11" d="M14.65,12.61s0,.33.17.05C14.82,12.66,14.7,12.79,14.65,12.61Z"/><path class="cls-11" d="M15.6,13.41s-.1.85.51.54C16.11,13.95,15.59,14,15.6,13.41Z"/><path class="cls-11" d="M14.25,15.61s0,1,.57.21C14.81,15.82,14.36,16.2,14.25,15.61Z"/><path class="cls-11" d="M13.22,14.92s-.29.12-.32.21-.21.25-.24.19.32-.23.26-.3S13.22,14.92,13.22,14.92Z"/><path class="cls-11" d="M11.14,15.68s-.15.68.2.45C11.34,16.13,11.12,16.14,11.14,15.68Z"/><path class="cls-11" d="M11.68,16s.2-.08.18-.46C11.86,15.52,11.78,15.91,11.68,16Z"/><path class="cls-11" d="M8.34,15.14s0,.34.19.2C8.53,15.34,8.39,15.35,8.34,15.14Z"/><path class="cls-11" d="M8.27,14.67s-.42.08-.05-.16C8.22,14.51,8,14.65,8.27,14.67Z"/><path class="cls-11" d="M8.51,15s0-.47.28-.13C8.78,14.91,8.57,14.72,8.51,15Z"/><path class="cls-11" d="M9.61,17s.29.79.81.09C10.41,17.06,9.89,17.52,9.61,17Z"/><path class="cls-11" d="M17.83,15.29s.36.06-.12.75C17.71,16,18,15.59,17.83,15.29Z"/><path class="cls-11" d="M17.76,16.57s-.19.44.32.27C18.08,16.84,17.7,16.87,17.76,16.57Z"/><path class="cls-11" d="M18.1,17.95s0,.35.23,0C18.34,17.93,18.16,18.18,18.1,17.95Z"/><path class="cls-11" d="M20,15.73s-.3.66.27.41C20.23,16.14,19.79,16.19,20,15.73Z"/><path class="cls-11" d="M20.61,16.34s.31.15,0,.46S20.84,16.66,20.61,16.34Z"/><path class="cls-11" d="M21,15.71s.11.48.22,0C21.22,15.7,21.12,16,21,15.71Z"/><path class="cls-11" d="M19.84,20.26s.39.91.65.07C20.49,20.33,20.18,20.79,19.84,20.26Z"/><path class="cls-11" d="M19.86,22.09s.14.56-.23.24C19.63,22.33,19.88,22.46,19.86,22.09Z"/><path class="cls-11" d="M18.85,21.23s0,.4.26.5S18.88,21.65,18.85,21.23Z"/><path class="cls-11" d="M17.86,23.67s-.2.76.2.18C18.06,23.84,17.74,24.07,17.86,23.67Z"/><path class="cls-11" d="M18.45,23.74a1.16,1.16,0,0,1,0,.76A1.74,1.74,0,0,0,18.45,23.74Z"/><path class="cls-11" d="M14.4,17.36s-.14.58.25.24C14.65,17.6,14.38,17.75,14.4,17.36Z"/><path class="cls-11" d="M15,18.28s.19.23.21-.29C15.23,18,15.18,18.37,15,18.28Z"/><path class="cls-11" d="M18,19.34s-.05.19-.28.11S17.82,19.5,18,19.34Z"/><path class="cls-11" d="M17.3,19.75a.49.49,0,0,0,.38.19C17.91,19.93,17.39,19.92,17.3,19.75Z"/><path class="cls-11" d="M15.88,19.84a.23.23,0,0,0,.33.21S15.92,20,15.88,19.84Z"/><path class="cls-11" d="M14.47,19.7s0,.25.12.12S14.47,19.86,14.47,19.7Z"/><path class="cls-11" d="M15.07,19.36s.16-.11.2.14S15.27,19.35,15.07,19.36Z"/><path class="cls-11" d="M12.26,19a.26.26,0,0,0,0,.32C12.32,19.54,12.15,19.06,12.26,19Z"/><path class="cls-11" d="M12.78,19.59s.13.38-.15.44A.42.42,0,0,0,12.78,19.59Z"/><path class="cls-11" d="M12.74,19.07s0-.35.29-.21A.24.24,0,0,0,12.74,19.07Z"/><path class="cls-11" d="M13.47,18.84s.08.29,0,.32S13.47,19.09,13.47,18.84Z"/><path class="cls-11" d="M10.71,20.32s0,1.25.67.48,0,0,0,0S10.7,21.14,10.71,20.32Z"/><path class="cls-11" d="M11.25,18.68a2.6,2.6,0,0,1-.17,1C10.92,19.92,11.25,19.25,11.25,18.68Z"/><path class="cls-11" d="M9.63,18.54s-.18.51.16.14C9.79,18.68,9.55,18.83,9.63,18.54Z"/><path class="cls-11" d="M8.16,21.79s-.09.88.53.32C8.69,22.12,8.21,22.48,8.16,21.79Z"/><path class="cls-11" d="M5.33,23.8s-.54.75.28.33C5.61,24.13,5,24.35,5.33,23.8Z"/><path class="cls-11" d="M10.5,22.59s-.15.32.14.17h0C11,22.58,10.36,22.9,10.5,22.59Z"/><path class="cls-11" d="M11,23.06s.05.46-.13.31C10.83,23.37,11,23.35,11,23.06Z"/><path class="cls-11" d="M11.08,22.52a.14.14,0,0,1,.15.14C11.23,22.8,11.24,22.55,11.08,22.52Z"/><path class="cls-11" d="M11.52,22.26s-.13,0-.07.18S11.39,22.34,11.52,22.26Z"/><path class="cls-11" d="M13.55,24.22s.2.58-.2.66S13.62,24.87,13.55,24.22Z"/><path class="cls-11" d="M13,22.47s-.1.21.1.74S12.89,22.61,13,22.47Z"/><path class="cls-11" d="M15.8,24.55s.34.3-.31.68C15.49,25.22,16,24.8,15.8,24.55Z"/><path class="cls-11" d="M15.3,23.48a1.83,1.83,0,0,0,.16.84C15.67,24.79,15.24,23.76,15.3,23.48Z"/><path class="cls-11" d="M20.47,24.06s-.25.78.45.42C20.92,24.48,20.46,24.61,20.47,24.06Z"/><path class="cls-11" d="M21.33,23.1s0,.47-.31.56S21.33,23.56,21.33,23.1Z"/><path class="cls-11" d="M22.64,23.43s-.23.4.17.22C22.81,23.65,22.47,23.75,22.64,23.43Z"/><path class="cls-11" d="M23,23.69s.1.14,0,.23S23.06,23.88,23,23.69Z"/><path class="cls-11" d="M19.25,9.92s-.19.58.52.32C19.76,10.24,19.23,10.45,19.25,9.92Z"/><path class="cls-11" d="M19.67,9.19s0,.46-.16.49S19.68,9.53,19.67,9.19Z"/><path class="cls-11" d="M20.57,8.72s-.13.28.06.27S20.48,9,20.57,8.72Z"/><path class="cls-11" d="M20.92,8.3s0,.15.09.22S20.8,8.45,20.92,8.3Z"/><path class="cls-8" d="M10.05,12.39A9.33,9.33,0,0,0,13.9,10a.83.83,0,0,1,.4-.27c.38-.07.64.4,1,.51s.82-.23,1.24-.19.75.5,1.09.81a4,4,0,0,0,1.35.71,10.7,10.7,0,0,0,1.81.55.76.76,0,0,1,.38.13.24.24,0,0,1,0,.35.31.31,0,0,1-.16.05c-.92.1-1.75-.52-2.61-.85a8.73,8.73,0,0,0-1.29-.35,12.06,12.06,0,0,0-1.4-.25,6.06,6.06,0,0,0-3.11.53c-1,.46-1.85,1.19-2.82,1.72a1.26,1.26,0,0,1-.57.19.48.48,0,0,1-.48-.3A.57.57,0,0,1,9,12.82a1.3,1.3,0,0,1,.93-.39Z"/><circle class="cls-4" cx="14.71" cy="2.73" r="0.35" transform="translate(4.56 13.72) rotate(-57.79)"/><ellipse class="cls-4" cx="13.11" cy="4.56" rx="0.33" ry="0.17" transform="translate(4.01 15.05) rotate(-68.22)"/><ellipse class="cls-4" cx="14.88" cy="4.73" rx="0.25" ry="0.74" transform="translate(4.96 16.8) rotate(-68.22)"/><ellipse class="cls-4" cx="14.07" cy="5.94" rx="0.44" ry="0.22" transform="translate(3.33 16.8) rotate(-68.22)"/></g></g></svg>